Coordinates
version=1
nRows=5
nColumns=40
inDegrees=yes

Units are S.I. units (second, meters, Newtons, ...)
If the header above contains a line with 'inDegrees', this indicates whether rotational values are in degrees (yes) or radians (no).

endheader
time	pelvis_tilt	pelvis_list	pelvis_rotation	pelvis_tx	pelvis_ty	pelvis_tz	hip_flexion_r	hip_adduction_r	hip_rotation_r	knee_angle_r	knee_angle_r_beta	ankle_angle_r	subtalar_angle_r	mtp_angle_r	hip_flexion_l	hip_adduction_l	hip_rotation_l	knee_angle_l	knee_angle_l_beta	ankle_angle_l	subtalar_angle_l	mtp_angle_l	lumbar_extension	lumbar_bending	lumbar_rotation	arm_flex_r	arm_add_r	arm_rot_r	elbow_flex_r	pro_sup_r	wrist_flex_r	wrist_dev_r	arm_flex_l	arm_add_l	arm_rot_l	elbow_flex_l	pro_sup_l	wrist_flex_l	wrist_dev_l
      6.84500000	    -19.61804144	     -1.18727233	      3.81606763	     -0.46409434	      0.76726350	     -0.89685201	     67.21562829	    -18.07446752	     -7.40648770	     83.00409033	      1.44869467	     38.13116942	      0.00000000	      0.00000000	     70.78688348	    -18.99354169	     -8.93893729	     82.72253226	      1.44378055	     30.98036214	      0.00000000	      0.00000000	    -23.55069669	      2.42760676	      4.85042224	     29.87449316	    -53.20061163	     89.51166982	     96.52051505	     88.55522361	      0.00000000	      0.00000000	     35.24072097	    -44.54103656	     89.69337624	     98.51096158	     88.57303624	      0.00000000	      0.00000000
      6.85000000	    -18.59458101	     -0.32420946	      3.76781621	     -0.45976412	      0.77429041	     -0.89793122	     65.51906021	    -18.59494110	     -7.00576796	     82.20147025	      1.43468631	     38.09419655	      0.00000000	      0.00000000	     68.26674494	    -18.32151832	     -9.87621023	     81.60749002	      1.42431940	     31.14819094	      0.00000000	      0.00000000	    -23.82966930	      1.70362881	      4.70195812	     29.81566460	    -52.89047236	     89.47619466	     95.82355048	     88.53200849	      0.00000000	      0.00000000	     35.27576692	    -44.22470222	     89.67230073	     97.75741299	     88.55402945	      0.00000000	      0.00000000
      6.85500000	    -18.17176010	     -0.47539022	      3.70105185	     -0.45612968	      0.77990840	     -0.89820266	     64.18258167	    -18.40724321	     -7.46176931	     81.22527357	      1.41764846	     37.89722545	      0.00000000	      0.00000000	     67.13347602	    -18.29572359	     -9.81801146	     80.86553518	      1.41136984	     31.03804857	      0.00000000	      0.00000000	    -23.27307902	      1.91535080	      4.99289209	     29.61909158	    -52.63206868	     89.44935352	     95.09054189	     88.50650062	      0.00000000	      0.00000000	     35.19955171	    -43.79688997	     89.65593019	     96.96269715	     88.52480847	      0.00000000	      0.00000000
      6.86000000	    -17.03395082	      0.54954258	      3.47939195	     -0.45138910	      0.78738666	     -0.89911519	     62.38047730	    -18.90957587	     -6.87145112	     80.31118876	      1.40169467	     37.80316697	      0.00000000	      0.00000000	     64.32993653	    -17.69713886	    -11.08327118	     79.68580636	      1.39077969	     31.25227316	      0.00000000	      0.00000000	    -23.58496768	      0.95929694	      4.95509524	     29.44853722	    -52.23633243	     89.41062855	     94.39238859	     88.48518516	      0.00000000	      0.00000000	     35.20396656	    -43.46895598	     89.63708218	     96.23938829	     88.49955546	      0.00000000	      0.00000000
      6.86500000	    -16.69459172	      0.45267461	      3.53585530	     -0.44774191	      0.79339705	     -0.89980756	     61.07196250	    -18.95130052	     -7.43497884	     79.26158537	      1.38337564	     37.52166532	      0.00000000	      0.00000000	     63.19319607	    -17.44471352	    -11.01718708	     78.71969034	      1.37391778	     30.99254866	      0.00000000	      0.00000000	    -22.91520170	      1.17667949	      5.15054227	     29.17721887	    -51.98895012	     89.37524628	     93.64770053	     88.46021003	      0.00000000	      0.00000000	     35.13451233	    -43.01049825	     89.62120587	     95.32389815	     88.46116093	      0.00000000	      0.00000000
